<svg width="19" height="19" viewBox="0 0 19 19" fill="none" xmlns="http://www.w3.org/2000/svg">
<path fill-rule="evenodd" clip-rule="evenodd" d="M0.199219 9.34912C0.199219 5.75398 0.199219 3.95641 1.05591 2.66167C1.43846 2.08351 1.93361 1.58837 2.51177 1.20581C3.80651 0.349121 5.60408 0.349121 9.19922 0.349121C12.7944 0.349121 14.5919 0.349121 15.8867 1.20581C16.4648 1.58837 16.96 2.08351 17.3425 2.66167C18.1992 3.95641 18.1992 5.75398 18.1992 9.34912C18.1992 12.9443 18.1992 14.7418 17.3425 16.0366C16.96 16.6147 16.4648 17.1099 15.8867 17.4924C14.5919 18.3491 12.7944 18.3491 9.19922 18.3491C5.60408 18.3491 3.80651 18.3491 2.51177 17.4924C1.93361 17.1099 1.43846 16.6147 1.05591 16.0366C0.199219 14.7418 0.199219 12.9443 0.199219 9.34912ZM13.8585 9.34935C13.8585 11.9227 11.7724 14.0088 9.19906 14.0088C6.62574 14.0088 4.53965 11.9227 4.53965 9.34935C4.53965 6.77603 6.62574 4.68994 9.19906 4.68994C11.7724 4.68994 13.8585 6.77603 13.8585 9.34935ZM9.19906 12.4324C10.9018 12.4324 12.2821 11.052 12.2821 9.34935C12.2821 7.64665 10.9018 6.26635 9.19906 6.26635C7.49636 6.26635 6.11606 7.64665 6.11606 9.34935C6.11606 11.052 7.49636 12.4324 9.19906 12.4324ZM14.0425 5.55067C14.6471 5.55067 15.1373 5.0605 15.1373 4.45585C15.1373 3.85119 14.6471 3.36102 14.0425 3.36102C13.4378 3.36102 12.9477 3.85119 12.9477 4.45585C12.9477 5.0605 13.4378 5.55067 14.0425 5.55067Z" fill="#8D8BA7"/>
</svg>
