<svg width="19" height="18" viewBox="0 0 19 18" fill="none" xmlns="http://www.w3.org/2000/svg">
<path d="M0.199219 2.76893C0.199219 2.19172 0.401927 1.71553 0.807327 1.34036C1.21273 0.965172 1.73977 0.777588 2.38841 0.777588C3.02548 0.777588 3.54091 0.96228 3.93474 1.3317C4.34014 1.71265 4.54285 2.20903 4.54285 2.82088C4.54285 3.37499 4.34594 3.83674 3.95211 4.20616C3.54671 4.58711 3.01389 4.77759 2.35366 4.77759H2.33628C1.69921 4.77759 1.18378 4.58711 0.789952 4.20616C0.396124 3.82521 0.199219 3.34612 0.199219 2.76893ZM0.425087 17.9204V6.35334H4.28223V17.9204H0.425087ZM6.4193 17.9204H10.2764V11.4616C10.2764 11.0575 10.3228 10.7458 10.4154 10.5265C10.5776 10.134 10.8237 9.8021 11.1539 9.53083C11.484 9.25954 11.8981 9.12391 12.3961 9.12391C13.6934 9.12391 14.3421 9.99547 14.3421 11.7386V17.9204H18.1992V11.2884C18.1992 9.57989 17.7938 8.28408 16.983 7.40096C16.1722 6.51785 15.1008 6.07629 13.7687 6.07629C12.2745 6.07629 11.1104 6.71698 10.2764 7.99836V8.033H10.2591L10.2764 7.99836V6.35334H6.4193C6.44246 6.72275 6.45404 7.87137 6.45404 9.79923C6.45404 11.7271 6.44246 14.4341 6.4193 17.9204Z" fill="#8D8BA7"/>
</svg>
