<svg width="35" height="36" viewBox="0 0 35 36" fill="none" xmlns="http://www.w3.org/2000/svg">
<path fill-rule="evenodd" clip-rule="evenodd" d="M29.5227 10.4791C32.1885 10.4791 34.3496 8.31801 34.3496 5.6522C34.3496 2.98638 32.1885 0.825317 29.5227 0.825317C26.8569 0.825317 24.6958 2.98638 24.6958 5.6522C24.6958 8.31801 26.8569 10.4791 29.5227 10.4791Z" fill="#FFDD55"/>
<path fill-rule="evenodd" clip-rule="evenodd" d="M29.5227 22.602C32.1885 22.602 34.3496 20.441 34.3496 17.7753C34.3496 15.1095 32.1885 12.9485 29.5227 12.9485C26.8569 12.9485 24.6958 15.1095 24.6958 17.7753C24.6958 20.441 26.8569 22.602 29.5227 22.602Z" fill="#FFDD55"/>
<path fill-rule="evenodd" clip-rule="evenodd" d="M29.5227 35.1746C32.1885 35.1746 34.3496 33.0135 34.3496 30.3477C34.3496 27.6819 32.1885 25.5208 29.5227 25.5208C26.8569 25.5208 24.6958 27.6819 24.6958 30.3477C24.6958 33.0135 26.8569 35.1746 29.5227 35.1746Z" fill="#FFDD55"/>
<path fill-rule="evenodd" clip-rule="evenodd" d="M16.9508 22.602C19.6165 22.602 21.7775 20.441 21.7775 17.7753C21.7775 15.1095 19.6165 12.9485 16.9508 12.9485C14.285 12.9485 12.124 15.1095 12.124 17.7753C12.124 20.441 14.285 22.602 16.9508 22.602Z" fill="#FFDD55"/>
<path fill-rule="evenodd" clip-rule="evenodd" d="M16.9508 35.1747C19.6165 35.1747 21.7775 33.0136 21.7775 30.3478C21.7775 27.682 19.6165 25.5209 16.9508 25.5209C14.285 25.5209 12.124 27.682 12.124 30.3478C12.124 33.0136 14.285 35.1747 16.9508 35.1747Z" fill="#FFDD55"/>
<path fill-rule="evenodd" clip-rule="evenodd" d="M4.82688 35.1746C7.49269 35.1746 9.65376 33.0136 9.65376 30.3478C9.65376 27.6819 7.49269 25.5209 4.82688 25.5209C2.16107 25.5209 0 27.6819 0 30.3478C0 33.0136 2.16107 35.1746 4.82688 35.1746Z" fill="#FFDD55"/>
</svg>
