<svg width="262" height="36" viewBox="0 0 262 36" fill="none" xmlns="http://www.w3.org/2000/svg">
<path d="M103.498 32.4902C103.463 32.7246 103.357 32.9062 103.182 33.0352C103.006 33.1758 102.807 33.2461 102.584 33.2461H102.479C101.998 33.1992 101.424 33.1582 100.756 33.123C100.088 33.0879 99.3555 33.0586 98.5586 33.0352C97.7734 33.0117 96.9355 32.9941 96.0449 32.9824C95.166 32.9707 94.2754 32.9648 93.373 32.9648C92.4707 32.9648 91.5801 32.9707 90.7012 32.9824C89.8223 32.9941 88.9902 33.0117 88.2051 33.0352C87.4316 33.0586 86.7109 33.0879 86.043 33.123C85.3867 33.1582 84.8301 33.1992 84.373 33.2461H84.3027C84.0684 33.2461 83.8633 33.1699 83.6875 33.0176C83.5117 32.8652 83.4062 32.6426 83.3711 32.3496C83.3711 32.1152 83.4473 31.9102 83.5996 31.7344C83.7637 31.5586 83.9629 31.4531 84.1973 31.418C84.5371 31.3828 84.9238 31.3535 85.3574 31.3301C85.8027 31.3066 86.2891 31.2773 86.8164 31.2422L87.2207 9.02344C86.2129 8.95312 85.1934 8.84766 84.1621 8.70703C83.9277 8.67188 83.7344 8.56641 83.582 8.39062C83.4414 8.21484 83.3711 8.01563 83.3711 7.79297C83.4062 7.48828 83.5117 7.25977 83.6875 7.10742C83.8633 6.94336 84.0684 6.86133 84.3027 6.86133H84.4082C85.6387 7.04883 86.8574 7.18359 88.0645 7.26562C89.2832 7.33594 90.4902 7.37109 91.6855 7.37109C92.4121 7.37109 93.127 7.35937 93.8301 7.33594C94.5332 7.3125 95.2363 7.26562 95.9395 7.19531H96.0098C96.2793 7.19531 96.502 7.28906 96.6777 7.47656C96.8535 7.65234 96.9414 7.86914 96.9414 8.12695C96.9414 8.36133 96.8594 8.56641 96.6953 8.74219C96.5312 8.90625 96.3262 9 96.0801 9.02344C95.6465 9.05859 95.207 9.09375 94.7617 9.12891C94.3281 9.15234 93.8887 9.17578 93.4434 9.19922L92.8633 31.1367H93.373C94.1699 31.1367 94.9609 31.1426 95.7461 31.1543C96.5312 31.166 97.2871 31.1836 98.0137 31.207C98.752 31.2188 99.4434 31.2363 100.088 31.2598C100.732 31.2832 101.312 31.3125 101.828 31.3477L103.129 24C103.164 23.7656 103.27 23.5781 103.445 23.4375C103.621 23.2852 103.814 23.209 104.025 23.209C104.283 23.209 104.506 23.3086 104.693 23.5078C104.881 23.6953 104.975 23.9062 104.975 24.1406C104.975 24.1758 104.969 24.2051 104.957 24.2285C104.945 24.252 104.939 24.2812 104.939 24.3164L103.498 32.4902ZM129.742 15.5801C129.742 15.791 129.672 15.9844 129.531 16.1602C129.402 16.3359 129.221 16.4414 128.986 16.4766C128.576 16.5703 128.166 16.6465 127.756 16.7051C127.346 16.752 126.941 16.8047 126.543 16.8633L126.262 31.418C126.672 31.418 127.088 31.4297 127.51 31.4531C127.943 31.4648 128.365 31.5 128.775 31.5586C129.033 31.582 129.232 31.6875 129.373 31.875C129.525 32.0508 129.602 32.2441 129.602 32.4551C129.602 32.748 129.502 32.9766 129.303 33.1406C129.115 33.3164 128.916 33.4043 128.705 33.4043H128.6C128.119 33.3457 127.645 33.3047 127.176 33.2812C126.719 33.2578 126.268 33.2461 125.822 33.2461C125.014 33.2461 124.211 33.2871 123.414 33.3691C122.629 33.4512 121.85 33.5801 121.076 33.7559H120.883C120.637 33.7559 120.42 33.6621 120.232 33.4746C120.045 33.2988 119.951 33.0938 119.951 32.8594V32.8242L120.057 29.6074C119.318 30.9551 118.457 31.9863 117.473 32.7012C116.488 33.4043 115.393 33.7559 114.186 33.7559C113.424 33.7559 112.75 33.6328 112.164 33.3867C111.59 33.1406 111.08 32.8125 110.635 32.4023C110.201 31.9805 109.832 31.5 109.527 30.9609C109.234 30.4102 108.994 29.8359 108.807 29.2383C108.631 28.6289 108.502 28.0137 108.42 27.3926C108.338 26.7715 108.297 26.1797 108.297 25.6172C108.297 24.082 108.443 22.5762 108.736 21.0996C109.041 19.623 109.492 18.2285 110.09 16.916L106.926 16.8281C106.668 16.8047 106.451 16.7109 106.275 16.5469C106.111 16.3711 106.029 16.1543 106.029 15.8965C106.029 15.6621 106.117 15.457 106.293 15.2812C106.469 15.0938 106.691 15 106.961 15L111.602 15.1055C111.859 15.1406 112.07 15.2461 112.234 15.4219C112.41 15.5859 112.498 15.791 112.498 16.0371C112.498 16.1309 112.48 16.2188 112.445 16.3008C112.422 16.3711 112.393 16.4414 112.357 16.5117C112.135 16.7344 111.924 17.0684 111.725 17.5137C111.525 17.959 111.344 18.4688 111.18 19.043C111.016 19.6055 110.869 20.209 110.74 20.8535C110.611 21.4863 110.5 22.1074 110.406 22.7168C110.312 23.3145 110.242 23.8711 110.195 24.3867C110.148 24.9023 110.125 25.3242 110.125 25.6523C110.125 26.3789 110.184 27.1172 110.301 27.8672C110.43 28.6055 110.646 29.2793 110.951 29.8887C111.256 30.4863 111.666 30.9785 112.182 31.3652C112.697 31.7402 113.354 31.9277 114.15 31.9277C114.865 31.9277 115.545 31.7227 116.189 31.3125C116.834 30.8906 117.414 30.293 117.93 29.5195C118.457 28.7461 118.914 27.8027 119.301 26.6895C119.699 25.5762 120.016 24.3223 120.25 22.9277L120.461 15.8613C120.461 15.6035 120.561 15.3984 120.76 15.2461C120.959 15.082 121.17 15 121.393 15H121.498C121.896 15.0586 122.301 15.0996 122.711 15.123C123.121 15.1348 123.549 15.1406 123.994 15.1406C124.709 15.1406 125.453 15.1055 126.227 15.0352C127.012 14.9648 127.826 14.8477 128.67 14.6836C128.693 14.6836 128.717 14.6777 128.74 14.666C128.764 14.6543 128.787 14.6484 128.811 14.6484C129.08 14.6484 129.303 14.748 129.479 14.9473C129.654 15.1348 129.742 15.3457 129.742 15.5801ZM162.385 32.9297H162.262C161.828 32.8711 161.395 32.8301 160.961 32.8066C160.527 32.7715 160.076 32.7539 159.607 32.7539C159.045 32.7539 158.441 32.7832 157.797 32.8418C157.152 32.8887 156.426 32.9766 155.617 33.1055H155.459C155.213 33.1055 155.002 33.0176 154.826 32.8418C154.65 32.6543 154.562 32.4434 154.562 32.209C154.562 31.9746 154.633 31.7695 154.773 31.5938C154.926 31.418 155.107 31.3125 155.318 31.2773C155.846 31.207 156.344 31.1426 156.812 31.084C157.281 31.0254 157.721 30.9785 158.131 30.9434C158.213 30.5332 158.307 29.9824 158.412 29.291C158.529 28.5996 158.635 27.8672 158.729 27.0938C158.822 26.3086 158.898 25.5234 158.957 24.7383C159.027 23.9414 159.062 23.2383 159.062 22.6289C159.062 22.0547 159.027 21.4688 158.957 20.8711C158.887 20.2617 158.746 19.7109 158.535 19.2188C158.324 18.7266 158.02 18.3281 157.621 18.0234C157.234 17.707 156.719 17.5488 156.074 17.5488C155.254 17.5488 154.545 17.7188 153.947 18.0586C153.361 18.3984 152.857 18.8203 152.436 19.3242C152.014 19.8164 151.668 20.3496 151.398 20.9238C151.141 21.498 150.936 22.0195 150.783 22.4883C150.783 23.4258 150.748 24.3164 150.678 25.1602C150.643 25.6758 150.596 26.209 150.537 26.7598C150.479 27.2988 150.42 27.8262 150.361 28.3418C150.303 28.8457 150.244 29.3262 150.186 29.7832C150.127 30.2285 150.074 30.6152 150.027 30.9434C150.391 30.9434 150.76 30.9609 151.135 30.9961C151.521 31.0195 151.92 31.0488 152.33 31.084C152.588 31.1074 152.787 31.207 152.928 31.3828C153.08 31.5586 153.156 31.7637 153.156 31.998C153.156 32.2793 153.062 32.5078 152.875 32.6836C152.688 32.8477 152.482 32.9297 152.26 32.9297H152.154C151.662 32.8711 151.199 32.8359 150.766 32.8242C150.332 32.8008 149.904 32.7891 149.482 32.7891C148.873 32.7891 148.258 32.8184 147.637 32.877C147.027 32.9238 146.359 33 145.633 33.1055H145.492C145.234 33.1055 145.018 33.0176 144.842 32.8418C144.678 32.6543 144.596 32.4434 144.596 32.209C144.596 31.9746 144.666 31.7695 144.807 31.5938C144.959 31.418 145.152 31.3125 145.387 31.2773C145.891 31.207 146.365 31.1484 146.811 31.1016C147.256 31.043 147.707 31.002 148.164 30.9785C148.211 30.6855 148.264 30.3164 148.322 29.8711C148.381 29.4141 148.439 28.916 148.498 28.377C148.568 27.8379 148.633 27.2812 148.691 26.707C148.762 26.1328 148.814 25.5762 148.85 25.0371C148.873 24.6387 148.896 24.2227 148.92 23.7891C148.943 23.3438 148.955 22.8867 148.955 22.418C148.955 21.8555 148.926 21.2871 148.867 20.7129C148.809 20.1387 148.68 19.6172 148.48 19.1484C148.281 18.6797 147.994 18.2988 147.619 18.0059C147.256 17.7012 146.764 17.5488 146.143 17.5488C145.557 17.5488 145.018 17.6836 144.525 17.9531C144.033 18.2109 143.588 18.5449 143.189 18.9551C142.791 19.3535 142.439 19.7988 142.135 20.291C141.842 20.7715 141.59 21.2402 141.379 21.6973C141.168 22.1426 140.998 22.541 140.869 22.8926C140.752 23.2324 140.676 23.4668 140.641 23.5957L140.605 31.2773C140.816 31.3008 141.021 31.3242 141.221 31.3477C141.42 31.3711 141.619 31.3945 141.818 31.418C142.053 31.4531 142.246 31.5586 142.398 31.7344C142.562 31.9102 142.645 32.1152 142.645 32.3496C142.645 32.6074 142.545 32.8242 142.346 33C142.158 33.1641 141.947 33.2461 141.713 33.2461H141.607C140.904 33.1523 140.184 33.0762 139.445 33.0176C138.719 32.959 137.951 32.9297 137.143 32.9297C136.416 32.9297 135.648 32.959 134.84 33.0176C134.043 33.0879 133.188 33.2168 132.273 33.4043C132.238 33.4043 132.209 33.4102 132.186 33.4219C132.162 33.4336 132.133 33.4395 132.098 33.4395C131.828 33.4395 131.611 33.3398 131.447 33.1406C131.283 32.9414 131.201 32.7246 131.201 32.4902C131.201 32.2793 131.266 32.0859 131.395 31.9102C131.523 31.7344 131.699 31.6289 131.922 31.5938C132.355 31.5 132.771 31.4297 133.17 31.3828C133.568 31.3242 133.967 31.2773 134.365 31.2422V18.0938C133.627 18.0586 133.006 18.0176 132.502 17.9707C132.01 17.9121 131.734 17.8828 131.676 17.8828C131.441 17.8477 131.248 17.7422 131.096 17.5664C130.955 17.3906 130.885 17.1855 130.885 16.9512C130.885 16.6582 130.99 16.4355 131.201 16.2832C131.412 16.1191 131.617 16.0371 131.816 16.0371H131.922C131.934 16.0371 132.068 16.0547 132.326 16.0898C132.584 16.1133 132.918 16.1484 133.328 16.1953C133.75 16.2305 134.225 16.2656 134.752 16.3008C135.279 16.3242 135.824 16.3359 136.387 16.3359C136.949 16.3359 137.5 16.3184 138.039 16.2832C138.578 16.2363 139.07 16.1543 139.516 16.0371H139.691C139.961 16.0371 140.184 16.1309 140.359 16.3184C140.547 16.5059 140.641 16.7168 140.641 16.9512V19.2539C140.922 18.7969 141.244 18.3574 141.607 17.9355C141.982 17.5137 142.398 17.1387 142.855 16.8105C143.312 16.4824 143.816 16.2188 144.367 16.0195C144.918 15.8203 145.51 15.7207 146.143 15.7207C146.705 15.7207 147.215 15.8027 147.672 15.9668C148.129 16.1309 148.533 16.3652 148.885 16.6699C149.248 16.9629 149.559 17.3145 149.816 17.7246C150.074 18.1348 150.279 18.5801 150.432 19.0605C150.689 18.6621 150.994 18.2637 151.346 17.8652C151.709 17.4668 152.119 17.1094 152.576 16.793C153.045 16.4766 153.566 16.2188 154.141 16.0195C154.727 15.8203 155.371 15.7207 156.074 15.7207C157.059 15.7207 157.861 15.9316 158.482 16.3535C159.115 16.7754 159.613 17.3145 159.977 17.9707C160.34 18.627 160.592 19.3652 160.732 20.1855C160.873 21.0059 160.943 21.8086 160.943 22.5938C160.943 23.2148 160.908 23.9121 160.838 24.6855C160.779 25.4473 160.703 26.209 160.609 26.9707C160.516 27.7324 160.416 28.4648 160.311 29.168C160.217 29.8594 160.129 30.4395 160.047 30.9082C160.48 30.9082 160.896 30.9258 161.295 30.9609C161.693 30.9844 162.092 31.0254 162.49 31.084C162.725 31.1074 162.918 31.207 163.07 31.3828C163.234 31.5586 163.316 31.7637 163.316 31.998C163.316 32.2441 163.217 32.4609 163.018 32.6484C162.83 32.8359 162.619 32.9297 162.385 32.9297ZM182.23 23.5605C182.23 22.6465 182.148 21.791 181.984 20.9941C181.82 20.1855 181.551 19.4824 181.176 18.8848C180.812 18.2871 180.332 17.8184 179.734 17.4785C179.137 17.127 178.398 16.9512 177.52 16.9512C177.027 16.9512 176.564 17.0332 176.131 17.1973C175.697 17.3613 175.293 17.5781 174.918 17.8477C174.555 18.1172 174.221 18.416 173.916 18.7441C173.623 19.0723 173.371 19.4004 173.16 19.7285C172.949 20.0449 172.779 20.3496 172.65 20.6426C172.533 20.9238 172.463 21.1523 172.439 21.3281C172.439 22.0547 172.445 22.7637 172.457 23.4551C172.48 24.1465 172.504 24.8203 172.527 25.4766C172.551 26.3438 172.65 27.1465 172.826 27.8848C173.014 28.6113 173.283 29.2383 173.635 29.7656C173.986 30.293 174.426 30.709 174.953 31.0137C175.492 31.3066 176.131 31.4531 176.869 31.4531C177.818 31.4531 178.627 31.2188 179.295 30.75C179.975 30.2812 180.531 29.6719 180.965 28.9219C181.398 28.1719 181.715 27.3281 181.914 26.3906C182.125 25.4531 182.23 24.5098 182.23 23.5605ZM184.076 23.5605C184.076 25.0605 183.859 26.4668 183.426 27.7793C182.992 29.0801 182.359 30.2168 181.527 31.1895C180.695 32.1621 179.676 32.9297 178.469 33.4922C177.262 34.0547 175.879 34.3359 174.32 34.3359C173.195 34.3359 172.146 34.1367 171.174 33.7383C170.213 33.3516 169.369 32.8066 168.643 32.1035C167.928 31.4004 167.354 30.5684 166.92 29.6074C166.498 28.6465 166.264 27.5918 166.217 26.4434C166.193 25.7168 166.176 24.791 166.164 23.666C166.152 22.5293 166.146 21.3105 166.146 20.0098C166.146 19.0371 166.146 18.0527 166.146 17.0566C166.158 16.0605 166.164 15.1172 166.164 14.2266C166.176 13.3242 166.182 12.5039 166.182 11.7656C166.193 11.0273 166.205 10.4238 166.217 9.95508C165.244 9.95508 164.453 9.91406 163.844 9.83203C163.234 9.75 162.9 9.69727 162.842 9.67383C162.619 9.63867 162.438 9.5332 162.297 9.35742C162.156 9.18164 162.086 8.98828 162.086 8.77734C162.086 8.625 162.121 8.49023 162.191 8.37305C162.25 8.25586 162.326 8.15625 162.42 8.07422C162.514 7.99219 162.613 7.93359 162.719 7.89844C162.824 7.85156 162.924 7.82812 163.018 7.82812C163.041 7.82812 163.064 7.82812 163.088 7.82812C163.111 7.82812 163.135 7.83984 163.158 7.86328C163.17 7.86328 163.258 7.875 163.422 7.89844C163.586 7.92187 163.809 7.95117 164.09 7.98633C164.371 8.00977 164.699 8.0332 165.074 8.05664C165.461 8.08008 165.877 8.0918 166.322 8.0918C167.049 8.0918 167.846 8.05078 168.713 7.96875C169.58 7.875 170.453 7.69922 171.332 7.44141C171.426 7.39453 171.508 7.37109 171.578 7.37109C171.848 7.37109 172.07 7.4707 172.246 7.66992C172.434 7.85742 172.527 8.06836 172.527 8.30273V8.33789C172.527 8.34961 172.521 8.61328 172.51 9.12891C172.498 9.63281 172.486 10.3125 172.475 11.168C172.475 12.0117 172.469 12.9902 172.457 14.1035C172.445 15.2168 172.439 16.377 172.439 17.584C172.697 17.2207 173.002 16.8867 173.354 16.582C173.717 16.2773 174.115 16.0137 174.549 15.791C174.994 15.5684 175.463 15.3984 175.955 15.2812C176.447 15.1641 176.957 15.1055 177.484 15.1055C178.633 15.1055 179.623 15.3281 180.455 15.7734C181.287 16.207 181.967 16.8047 182.494 17.5664C183.033 18.3281 183.432 19.2246 183.689 20.2559C183.947 21.2871 184.076 22.3887 184.076 23.5605ZM202.639 23.7188V23.4199C202.639 22.541 202.545 21.7266 202.357 20.9766C202.17 20.2266 201.871 19.5645 201.461 18.9902C201.062 18.4043 200.547 17.9238 199.914 17.5488C199.281 17.1738 198.52 16.9219 197.629 16.793C197.008 16.8633 196.469 17.0332 196.012 17.3027C195.555 17.5723 195.162 17.9062 194.834 18.3047C194.518 18.6914 194.254 19.1309 194.043 19.623C193.832 20.1152 193.662 20.625 193.533 21.1523C193.416 21.668 193.328 22.1895 193.27 22.7168C193.211 23.2324 193.176 23.7188 193.164 24.1758C193.352 24.2344 193.586 24.2988 193.867 24.3691C194.16 24.4395 194.488 24.5098 194.852 24.5801C195.215 24.6387 195.607 24.6914 196.029 24.7383C196.463 24.7734 196.914 24.791 197.383 24.791C198.379 24.791 199.311 24.6973 200.178 24.5098C201.057 24.3223 201.877 24.0586 202.639 23.7188ZM204.432 24.4043C204.396 24.709 204.232 24.9727 203.939 25.1953C203.646 25.418 203.277 25.6172 202.832 25.793C202.387 25.957 201.895 26.0977 201.355 26.2148C200.828 26.3203 200.307 26.4082 199.791 26.4785C199.275 26.5488 198.801 26.6016 198.367 26.6367C197.934 26.6602 197.594 26.6719 197.348 26.6719C196.492 26.6719 195.701 26.6133 194.975 26.4961C194.26 26.3789 193.668 26.2559 193.199 26.127C193.27 26.8535 193.404 27.5684 193.604 28.2715C193.803 28.9746 194.09 29.6074 194.465 30.1699C194.84 30.7207 195.309 31.1719 195.871 31.5234C196.434 31.8633 197.113 32.0332 197.91 32.0332C198.203 32.0332 198.537 31.998 198.912 31.9277C199.287 31.8457 199.656 31.7344 200.02 31.5938C200.383 31.4414 200.717 31.2656 201.021 31.0664C201.326 30.8555 201.566 30.6211 201.742 30.3633C201.941 30.1289 202.182 30.0117 202.463 30.0117C202.709 30.0117 202.926 30.1113 203.113 30.3105C203.301 30.498 203.395 30.709 203.395 30.9434C203.395 31.1895 203.318 31.3828 203.166 31.5234C202.885 31.957 202.492 32.3262 201.988 32.6309C201.484 32.9355 200.939 33.1816 200.354 33.3691C199.768 33.5684 199.176 33.709 198.578 33.791C197.98 33.8848 197.436 33.9316 196.943 33.9316C195.537 33.9316 194.23 33.6797 193.023 33.1758C191.816 32.6836 190.768 32.0039 189.877 31.1367C188.986 30.2695 188.283 29.25 187.768 28.0781C187.264 26.9062 187.012 25.6406 187.012 24.2812C187.012 22.793 187.234 21.4688 187.68 20.3086C188.125 19.1367 188.758 18.1523 189.578 17.3555C190.398 16.5469 191.395 15.9375 192.566 15.5273C193.738 15.1055 195.057 14.8945 196.521 14.8945C197.904 14.9531 199.094 15.1875 200.09 15.5977C201.098 16.0078 201.924 16.5762 202.568 17.3027C203.213 18.0293 203.688 18.9082 203.992 19.9395C204.309 20.959 204.467 22.1074 204.467 23.3848C204.467 23.6777 204.461 23.9121 204.449 24.0879C204.438 24.252 204.432 24.3574 204.432 24.4043ZM223.135 24.2812C222.701 24.2812 222.291 24.1992 221.904 24.0352C221.529 23.8711 221.201 23.6484 220.92 23.3672C220.639 23.0859 220.416 22.7578 220.252 22.3828C220.088 21.9961 220.006 21.5859 220.006 21.1523C220.006 20.7188 220.088 20.3145 220.252 19.9395C220.416 19.5527 220.639 19.2188 220.92 18.9375C221.201 18.6445 221.529 18.416 221.904 18.252C222.291 18.0762 222.701 17.9883 223.135 17.9883C223.193 17.9883 223.246 17.9941 223.293 18.0059C223.352 18.0176 223.41 18.0234 223.469 18.0234C223.164 17.7891 222.807 17.6133 222.396 17.4961C221.998 17.3672 221.535 17.3027 221.008 17.3027C220.34 17.3027 219.76 17.4434 219.268 17.7246C218.775 17.9941 218.354 18.3398 218.002 18.7617C217.662 19.1719 217.387 19.623 217.176 20.1152C216.965 20.5957 216.795 21.0527 216.666 21.4863C216.549 21.9082 216.467 22.2715 216.42 22.5762C216.385 22.8809 216.367 23.0566 216.367 23.1035L216.332 30.9082C216.742 30.9434 217.152 30.9961 217.562 31.0664C217.984 31.1367 218.412 31.207 218.846 31.2773C219.068 31.3359 219.25 31.4531 219.391 31.6289C219.531 31.793 219.602 31.9863 219.602 32.209C219.602 32.4668 219.502 32.6836 219.303 32.8594C219.104 33.0234 218.893 33.1055 218.67 33.1055H218.494C217.545 32.9297 216.643 32.7949 215.787 32.7012C214.932 32.6074 214.082 32.5605 213.238 32.5605C212.395 32.5605 211.551 32.6074 210.707 32.7012C209.863 32.7949 208.967 32.9297 208.018 33.1055H207.842C207.572 33.1055 207.355 33.0176 207.191 32.8418C207.027 32.6543 206.945 32.4434 206.945 32.209C206.945 31.9863 207.01 31.793 207.139 31.6289C207.268 31.4531 207.443 31.3359 207.666 31.2773C208.076 31.207 208.486 31.1367 208.896 31.0664C209.307 30.9961 209.711 30.9434 210.109 30.9082V17.8125C209.371 17.7773 208.75 17.7305 208.246 17.6719C207.742 17.6133 207.461 17.5723 207.402 17.5488C207.168 17.5254 206.975 17.4316 206.822 17.2676C206.682 17.0918 206.611 16.8867 206.611 16.6523C206.611 16.3594 206.711 16.1309 206.91 15.9668C207.121 15.8027 207.332 15.7207 207.543 15.7207H207.666C207.678 15.7324 207.812 15.7559 208.07 15.791C208.328 15.8145 208.662 15.8438 209.072 15.8789C209.482 15.9141 209.951 15.9434 210.479 15.9668C211.018 15.9902 211.562 16.002 212.113 16.002C212.676 16.002 213.227 15.9844 213.766 15.9492C214.305 15.9141 214.803 15.8496 215.26 15.7559C215.283 15.7324 215.342 15.7207 215.436 15.7207C215.705 15.7207 215.928 15.8203 216.104 16.0195C216.279 16.207 216.367 16.418 216.367 16.6523V17.918C216.871 17.2148 217.504 16.6348 218.266 16.1777C219.039 15.709 219.953 15.4746 221.008 15.4746C221.805 15.498 222.531 15.6387 223.188 15.8965C223.844 16.1426 224.406 16.4883 224.875 16.9336C225.355 17.3672 225.725 17.8945 225.982 18.5156C226.252 19.125 226.387 19.8105 226.387 20.5723C226.387 21.0527 226.311 21.5156 226.158 21.9609C226.006 22.4062 225.789 22.8047 225.508 23.1562C225.227 23.4961 224.881 23.7715 224.471 23.9824C224.072 24.1816 223.627 24.2812 223.135 24.2812Z" fill="white"/>
<path fill-rule="evenodd" clip-rule="evenodd" d="M29.5227 10.4791C32.1885 10.4791 34.3496 8.31801 34.3496 5.6522C34.3496 2.98638 32.1885 0.825317 29.5227 0.825317C26.8569 0.825317 24.6958 2.98638 24.6958 5.6522C24.6958 8.31801 26.8569 10.4791 29.5227 10.4791Z" fill="#FFDD55"/>
<path fill-rule="evenodd" clip-rule="evenodd" d="M29.5227 22.602C32.1885 22.602 34.3496 20.441 34.3496 17.7753C34.3496 15.1095 32.1885 12.9485 29.5227 12.9485C26.8569 12.9485 24.6958 15.1095 24.6958 17.7753C24.6958 20.441 26.8569 22.602 29.5227 22.602Z" fill="#FFDD55"/>
<path fill-rule="evenodd" clip-rule="evenodd" d="M29.5227 35.1746C32.1885 35.1746 34.3496 33.0135 34.3496 30.3477C34.3496 27.6819 32.1885 25.5208 29.5227 25.5208C26.8569 25.5208 24.6958 27.6819 24.6958 30.3477C24.6958 33.0135 26.8569 35.1746 29.5227 35.1746Z" fill="#FFDD55"/>
<path fill-rule="evenodd" clip-rule="evenodd" d="M16.9508 22.602C19.6165 22.602 21.7775 20.441 21.7775 17.7753C21.7775 15.1095 19.6165 12.9485 16.9508 12.9485C14.285 12.9485 12.124 15.1095 12.124 17.7753C12.124 20.441 14.285 22.602 16.9508 22.602Z" fill="#FFDD55"/>
<path fill-rule="evenodd" clip-rule="evenodd" d="M16.9508 35.1747C19.6165 35.1747 21.7775 33.0136 21.7775 30.3478C21.7775 27.682 19.6165 25.5209 16.9508 25.5209C14.285 25.5209 12.124 27.682 12.124 30.3478C12.124 33.0136 14.285 35.1747 16.9508 35.1747Z" fill="#FFDD55"/>
<path fill-rule="evenodd" clip-rule="evenodd" d="M4.82688 35.1746C7.49269 35.1746 9.65376 33.0136 9.65376 30.3478C9.65376 27.6819 7.49269 25.5209 4.82688 25.5209C2.16107 25.5209 0 27.6819 0 30.3478C0 33.0136 2.16107 35.1746 4.82688 35.1746Z" fill="#FFDD55"/>
</svg>
