<svg width="19" height="15" viewBox="0 0 19 15" fill="none" xmlns="http://www.w3.org/2000/svg">
<path d="M12.2263 0.0503608V0.0471191H13.0703L13.3787 0.108711C13.5843 0.148697 13.7709 0.201099 13.9386 0.265933C14.1064 0.330766 14.2687 0.406411 14.4255 0.49285C14.5825 0.57929 14.7247 0.667366 14.8524 0.757047C14.979 0.845659 15.0927 0.939668 15.1933 1.03907C15.2928 1.13957 15.4481 1.1655 15.6591 1.11687C15.8701 1.06825 16.0973 1.00071 16.3408 0.914269C16.5842 0.82783 16.825 0.730579 17.0631 0.622518C17.3011 0.514456 17.4461 0.445846 17.4981 0.416671C17.5489 0.386426 17.576 0.370218 17.5792 0.368046L17.5824 0.363183L17.5987 0.355079L17.6149 0.346975L17.6311 0.33887L17.6474 0.330766L17.6506 0.325904L17.6555 0.322662L17.6604 0.31942L17.6636 0.314558L17.6798 0.309695L17.6961 0.306454L17.6928 0.330766L17.6879 0.355079L17.6798 0.379392L17.6717 0.403704L17.6636 0.419913L17.6555 0.436121L17.6474 0.460434C17.642 0.476642 17.6366 0.498248 17.6311 0.525267C17.6257 0.552287 17.5743 0.660332 17.4769 0.849435C17.3796 1.03854 17.2578 1.23033 17.1118 1.42483C16.9657 1.61933 16.8348 1.76628 16.719 1.8657C16.6021 1.96619 16.5247 2.03643 16.4869 2.07641C16.449 2.11747 16.403 2.15528 16.3489 2.18987L16.2677 2.24336L16.2515 2.25146L16.2353 2.25957L16.2321 2.26443L16.2272 2.26767L16.2223 2.27091L16.2191 2.27578L16.2028 2.28388L16.1866 2.29198L16.1834 2.29685L16.1785 2.30009L16.1736 2.30333L16.1704 2.30819L16.1671 2.31305L16.1622 2.3163L16.1574 2.31954L16.1541 2.3244H16.2353L16.6898 2.22715C16.9927 2.16232 17.2822 2.08398 17.5581 1.99213L17.9963 1.84625L18.045 1.83004L18.0694 1.82194L18.0856 1.81384L18.1018 1.80573L18.1181 1.79763L18.1343 1.78952L18.1668 1.78466L18.1992 1.78142V1.81384L18.1911 1.81708L18.183 1.82194L18.1798 1.8268L18.1749 1.83004L18.17 1.83329L18.1668 1.83815L18.1635 1.84301L18.1586 1.84625L18.1538 1.84949L18.1505 1.85436L18.1473 1.85922L18.1424 1.86246L18.1343 1.87867L18.1262 1.89488L18.1213 1.89812C18.1192 1.90136 18.0504 1.9932 17.9152 2.17366C17.7799 2.3552 17.7069 2.44703 17.6961 2.44921C17.6853 2.45245 17.6701 2.46866 17.6506 2.49783C17.6322 2.52808 17.5175 2.64857 17.3065 2.85928C17.0955 3.06999 16.8889 3.25745 16.6865 3.42171C16.4831 3.58704 16.3803 3.79018 16.3781 4.03115C16.3749 4.27103 16.3624 4.54226 16.3408 4.84481C16.3192 5.14737 16.2786 5.47423 16.2191 5.82542C16.1596 6.1766 16.0676 6.57371 15.9431 7.01673C15.8187 7.45976 15.6672 7.89199 15.4887 8.31341C15.3101 8.73483 15.1235 9.11302 14.9287 9.448C14.7339 9.78298 14.5554 10.0666 14.3931 10.2989C14.2308 10.5313 14.0658 10.7501 13.898 10.9554C13.7303 11.1607 13.5183 11.3919 13.2618 11.6491C13.0043 11.9052 12.8636 12.0457 12.8398 12.0705C12.8149 12.0943 12.7089 12.1829 12.5217 12.3363C12.3356 12.4908 12.1354 12.6454 11.9211 12.7999C11.708 12.9533 11.5121 13.0814 11.3336 13.184C11.155 13.2867 10.9397 13.4039 10.6876 13.5358C10.4366 13.6687 10.165 13.7918 9.8728 13.9053C9.58064 14.0188 9.27226 14.1241 8.94764 14.2214C8.62302 14.3186 8.30923 14.3943 8.00625 14.4483C7.70329 14.5023 7.35973 14.5482 6.97559 14.5861L6.3994 14.6428V14.6509H5.34439V14.6428L5.20643 14.6347C5.11447 14.6293 5.03872 14.6239 4.9792 14.6185C4.9197 14.6131 4.69516 14.5834 4.30562 14.5293C3.91608 14.4753 3.61041 14.4213 3.38858 14.3672C3.16677 14.3132 2.83673 14.2106 2.3985 14.0593C1.96026 13.908 1.58533 13.7551 1.2737 13.6006C0.963156 13.4471 0.768386 13.3499 0.68939 13.3088C0.611482 13.2689 0.523836 13.2192 0.42645 13.1597L0.280373 13.0706L0.277143 13.0657L0.272258 13.0625L0.267388 13.0592L0.264142 13.0544L0.247911 13.0463L0.23168 13.0382L0.22845 13.0333L0.223565 13.0301L0.218696 13.0268L0.21545 13.0219L0.21222 13.0171L0.207334 13.0138H0.199219V12.9814L0.21545 12.9847L0.23168 12.9895L0.304719 12.9976C0.353412 13.003 0.485969 13.0111 0.702375 13.0219C0.918797 13.0328 1.14872 13.0328 1.39219 13.0219C1.63565 13.0111 1.88453 12.9868 2.1388 12.949C2.39309 12.9112 2.69336 12.8464 3.03962 12.7545C3.38588 12.6627 3.70401 12.5535 3.994 12.4271C4.28291 12.2996 4.48849 12.2045 4.61078 12.1418C4.73196 12.0802 4.91699 11.9657 5.16586 11.7982L5.53916 11.547L5.54241 11.5421L5.54728 11.5389L5.55217 11.5356L5.5554 11.5308L5.55864 11.5259L5.56351 11.5227L5.5684 11.5194L5.57163 11.5146L5.58786 11.5097L5.60409 11.5065L5.60733 11.4903L5.6122 11.474L5.61709 11.4708L5.62032 11.4659L5.49047 11.4578C5.40391 11.4524 5.32005 11.447 5.23889 11.4416C5.15774 11.4362 5.0306 11.4119 4.85747 11.3687C4.68435 11.3255 4.4977 11.2606 4.29751 11.1742C4.09733 11.0878 3.90256 10.9851 3.7132 10.8662C3.52385 10.7474 3.38696 10.6485 3.30256 10.5696C3.21924 10.4918 3.11103 10.3816 2.97794 10.239C2.84593 10.0953 2.73123 9.94775 2.63384 9.79648C2.53646 9.6452 2.44341 9.47067 2.35469 9.27295L2.21996 8.97795L2.21184 8.95364L2.20373 8.92933L2.19886 8.91312L2.19561 8.89691L2.21996 8.90015L2.2443 8.90501L2.42284 8.92933C2.54188 8.94554 2.72854 8.95093 2.98281 8.94554C3.2371 8.94014 3.41292 8.92933 3.51031 8.91312C3.60769 8.89691 3.66721 8.8861 3.68885 8.8807L3.72131 8.8726L3.76189 8.86449L3.80246 8.85639L3.80571 8.85153L3.81058 8.84828L3.81547 8.84504L3.8187 8.84018L3.78623 8.83208L3.75377 8.82397L3.72131 8.81587L3.68885 8.80776L3.65639 8.79966C3.63475 8.79426 3.59688 8.78345 3.54277 8.76724C3.48867 8.75103 3.3426 8.6916 3.10454 8.58895C2.8665 8.4863 2.67713 8.38634 2.53646 8.28909C2.39544 8.19156 2.26097 8.0849 2.13393 7.96979C2.00733 7.85309 1.8683 7.70289 1.7168 7.5192C1.56532 7.33551 1.43007 7.12209 1.31103 6.87896C1.19201 6.63584 1.10274 6.40352 1.04322 6.182C0.983943 5.96178 0.944834 5.73664 0.926377 5.50935L0.897145 5.16898L0.913376 5.17222L0.929606 5.17708L0.945837 5.18518L0.962068 5.19329L0.978299 5.20139L0.99453 5.2095L1.24611 5.32296C1.41384 5.3986 1.62213 5.46343 1.871 5.51746C2.11988 5.57148 2.26865 5.60121 2.31734 5.6066L2.39038 5.61471H2.53646L2.53323 5.60985L2.52834 5.6066L2.52347 5.60336L2.52023 5.5985L2.517 5.59364L2.51211 5.59039L2.50724 5.58715L2.504 5.58229L2.48777 5.57419L2.47154 5.56608L2.46831 5.56122L2.46342 5.55798L2.45855 5.55474L2.45531 5.54987L2.43907 5.54177L2.42284 5.53367L2.41961 5.5288C2.41637 5.52663 2.36983 5.49206 2.28001 5.42507C2.19128 5.35699 2.09823 5.26893 2.00084 5.16087C1.90346 5.05281 1.80607 4.93935 1.70869 4.8205C1.61112 4.70137 1.52422 4.57391 1.44899 4.4396C1.37326 4.30453 1.29318 4.13271 1.20878 3.92417C1.12546 3.7167 1.06216 3.50761 1.01888 3.29691C0.975605 3.0862 0.951258 2.87819 0.945837 2.67288C0.940432 2.46757 0.945837 2.29198 0.962068 2.14611C0.978299 2.00023 1.01076 1.83544 1.05945 1.65175C1.10815 1.46806 1.17849 1.27356 1.27045 1.06825L1.40842 0.760289L1.41653 0.735977L1.42465 0.711664L1.42953 0.708422L1.43276 0.70356L1.43601 0.698697L1.44088 0.695455L1.44576 0.698697L1.44899 0.70356L1.45224 0.708422L1.45711 0.711664L1.46199 0.714906L1.46522 0.719768L1.46847 0.724631L1.47334 0.727872L1.48145 0.744081L1.48957 0.760289L1.49446 0.763531L1.49769 0.768393L1.7168 1.01152C1.86288 1.1736 2.03601 1.3546 2.23619 1.5545C2.43638 1.7544 2.54729 1.85813 2.56892 1.8657C2.59057 1.87434 2.61761 1.89919 2.65008 1.94026C2.68254 1.98025 2.79075 2.07588 2.97469 2.22715C3.15865 2.37842 3.3994 2.55402 3.69696 2.75392C3.99454 2.95382 4.32456 3.15103 4.68705 3.34553C5.04955 3.54003 5.43909 3.71562 5.85567 3.8723C6.27226 4.02899 6.56442 4.13164 6.73213 4.18026C6.89986 4.22889 7.18659 4.29102 7.59237 4.36666C7.99814 4.4423 8.30383 4.49093 8.50941 4.51254C8.715 4.53414 8.85568 4.54657 8.93141 4.54981L9.04503 4.55306L9.0418 4.52874L9.03691 4.50443L9.00445 4.30183C8.98281 4.16676 8.97199 3.97766 8.97199 3.73453C8.97199 3.49141 8.99093 3.26719 9.0288 3.06188C9.06668 2.85657 9.12349 2.64857 9.19922 2.43786C9.27497 2.22715 9.34909 2.05803 9.42158 1.93054C9.49517 1.80411 9.59147 1.65986 9.71049 1.49777C9.82953 1.33569 9.98372 1.16821 10.1731 0.995311C10.3624 0.822416 10.5788 0.668436 10.8223 0.533371C11.0658 0.398307 11.2903 0.295643 11.4959 0.225412C11.7015 0.155181 11.8746 0.109246 12.0153 0.0876402C12.1559 0.0660344 12.2263 0.0536025 12.2263 0.0503608Z" fill="#8D8BA7"/>
</svg>
