<svg width="21" height="15" viewBox="0 0 21 15" fill="none" xmlns="http://www.w3.org/2000/svg">
<path d="M10.638 14.329L6.57578 14.2531C5.26053 14.2267 3.94201 14.2795 2.65255 14.0054C0.690988 13.5959 0.552024 11.588 0.406613 9.90374C0.206251 7.5359 0.283817 5.12508 0.661926 2.77701C0.875381 1.45949 1.71541 0.673319 3.01449 0.587769C7.39984 0.277294 11.8144 0.314088 16.19 0.458936C16.6521 0.472215 17.1174 0.544791 17.5731 0.627401C19.8224 1.03032 19.8772 3.30572 20.0231 5.22117C20.1685 7.1564 20.1071 9.10155 19.8291 11.0236C19.6062 12.615 19.1795 13.9495 17.3792 14.0784C15.1234 14.2468 12.9194 14.3825 10.6573 14.3393C10.6574 14.329 10.6444 14.329 10.638 14.329ZM8.24979 10.3001C9.9497 9.30266 11.6172 8.32187 13.3074 7.33115C11.6043 6.33373 9.93998 5.35295 8.24979 4.36222V10.3001Z" fill="#8D8BA7"/>
</svg>
